<?xml version="1.0" encoding="UTF-8" standalone="no"?>
<!-- Created with Inkscape (http://www.inkscape.org/) -->

<svg
   width="1440"
   height="288"
   viewBox="0 0 380.99999 76.2"
   version="1.1"
   id="svg1"
   xml:space="preserve"
   inkscape:export-filename="bitmap.svg"
   inkscape:export-xdpi="96"
   inkscape:export-ydpi="96"
   xmlns:inkscape="http://www.inkscape.org/namespaces/inkscape"
   xmlns:sodipodi="http://sodipodi.sourceforge.net/DTD/sodipodi-0.dtd"
   xmlns="http://www.w3.org/2000/svg"
   xmlns:svg="http://www.w3.org/2000/svg"><sodipodi:namedview
     id="namedview1"
     pagecolor="#ffffff"
     bordercolor="#000000"
     borderopacity="0.25"
     inkscape:showpageshadow="2"
     inkscape:pageopacity="0.0"
     inkscape:pagecheckerboard="0"
     inkscape:deskcolor="#d1d1d1"
     inkscape:document-units="mm"
     inkscape:zoom="0.2102413"
     inkscape:cx="585.04204"
     inkscape:cy="1184.3534"
     inkscape:window-width="1312"
     inkscape:window-height="449"
     inkscape:window-x="269"
     inkscape:window-y="388"
     inkscape:window-maximized="0"
     inkscape:current-layer="layer1" /><defs
     id="defs1" /><g
     inkscape:label="Layer 1"
     inkscape:groupmode="layer"
     id="layer1"
     transform="translate(0,-0.31211039)"><g
       id="g4"
       transform="translate(-27.216107,6.950239)"><path
         fill="#4e3a6d"
         fill-opacity="0.7"
         d="m 27.216107,18.449761 9.07521,2.83104 c 9.0752,2.72521 27.1727,8.54604 45.42895,9.86896 18.07105,1.32292 36.247923,-1.32292 54.239593,-8.46667 18.25625,-7.14375 36.5125,-18.2562496 54.50417,-23.9976996 18.17687,-5.63563 36.24791,-5.63563 54.50416,-4.23334 18.0975,1.50813 36.24792,4.15396 54.50417,9.89542 18.01812,5.63562 36.24792,14.1022896 54.23958,15.5045796 18.22979,1.50813 36.24792,-4.31271 45.50834,-7.03791 l 8.99583,-2.8310496 V 69.249761 h -9.07521 c -9.07521,0 -27.17271,0 -45.42896,0 -18.07104,0 -36.24791,0 -54.23958,0 -18.25625,0 -36.5125,0 -54.50417,0 -18.17687,0 -36.24791,0 -54.50416,0 -18.0975,0 -36.24792,0 -54.50417,0 -18.01813,0 -36.247923,0 -54.239593,0 -18.22979,0 -36.24791,0 -45.50833,0 h -8.99583 z"
         id="path2"
         style="stroke-width:0.264583" /><path
         fill="#f8f7f1"
         fill-opacity="1"
         d="m 27.216107,1.8285414 21.16666,9.8689596 c 21.16667,9.97479 63.500003,29.55395 105.833343,32.46437 42.33333,2.91042 84.66667,-11.37708 127,-22.56896 42.33333,-11.29771 84.66667,-19.7643696 105.83333,-23.9977096 l 21.16667,-4.23333 V 69.561871 h -21.16667 c -21.16666,0 -63.5,0 -105.83333,0 -42.33333,0 -84.66667,0 -127,0 -42.33334,0 -84.666673,0 -105.833343,0 h -21.16666 z"
         id="path3"
         style="stroke-width:0.264583" /><path
         fill="#4e3a6d"
         fill-opacity="0.7"
         d="m 27.216107,26.438711 21.16666,6.28318 c 21.16667,6.35056 63.500003,18.81584 105.833343,20.66879 42.33333,1.85295 84.66667,-7.24334 127,-14.36877 42.33333,-7.19281 84.66667,-12.5832 105.83333,-15.2784 l 21.16667,-2.6952 v 48.51356 h -21.16667 c -21.16666,0 -63.5,0 -105.83333,0 -42.33333,0 -84.66667,0 -127,0 -42.33334,0 -84.666673,0 -105.833343,0 h -21.16666 z"
         id="path4"
         style="stroke-width:0.211113" /></g></g></svg>
